<?xml version="1.0" standalone="no"?><!DOCTYPE svg PUBLIC "-//W3C//DTD SVG 1.1//EN" "http://www.w3.org/Graphics/SVG/1.1/DTD/svg11.dtd"><svg t="1541171173099" class="icon" style="" viewBox="0 0 1024 1024" version="1.1" xmlns="http://www.w3.org/2000/svg" p-id="1710" xmlns:xlink="http://www.w3.org/1999/xlink" width="128" height="128"><defs><style type="text/css"></style></defs><path d="M220.9 244.9h-87.6l-43.8 75.9 43.8 75.9h87.6l43.8-75.9-43.8-75.9zM96.1 612.1l-49.8-86.2c-3.8-6.6-3.8-14.7 0-21.3l50-86.5-50-86.5c-3.8-6.6-3.8-14.7 0-21.3l56.1-97.2c3.8-6.6 10.9-10.7 18.5-10.7h101.2l50-86.5c3.8-6.6 10.9-10.7 18.5-10.7h100.1l50-86.5C444.5 12.1 451.6 8 459.2 8h112.3c7.6 0 14.7 4.1 18.5 10.7l50 86.5h101c7.6 0 14.7 4.1 18.5 10.7l49.6 85.9h100.3c7.6 0 14.7 4.1 18.5 10.7l56.1 97.2c3.8 6.6 3.8 14.7 0 21.3l-50 86.5 50 86.5c3.8 6.6 3.8 14.7 0 21.3l-50.3 87.2 50.3 87.2c3.8 6.6 3.8 14.7 0 21.3l-56.1 97.2c-3.8 6.6-10.9 10.7-18.5 10.7H808.8l-49.3 85.3c-3.8 6.6-10.9 10.7-18.5 10.7H640.9l-51 88.4c-3.8 6.6-10.9 10.7-18.5 10.7H459.2c-7.6 0-14.7-4.1-18.5-10.7l-51-88.4h-99.1c-7.6 0-14.7-4.1-18.5-10.7l-50-86.5H120.9c-7.6 0-14.7-4.1-18.5-10.7l-56.1-97.2c-3.8-6.6-3.8-14.7 0-21.3l49.8-86.4z m37.2-172.8l-43.8 75.9 43.8 75.9h87.6l43.8-75.9-43.8-75.9h-87.6z m338.2-194.4l-43.8 75.9 43.8 75.9h87.6l43.8-75.9-43.8-75.9h-87.6z m0 194.4l-43.8 75.9 43.8 75.9h87.6l43.8-75.9-43.8-75.9h-87.6z m87.6-388.9h-87.6l-43.8 75.9 43.8 75.9h87.6l43.8-75.9-43.8-75.9z m-168.6 97.3h-87.6l-43.8 75.9 43.8 75.9h87.6l43.8-75.9-43.8-75.9z m-87.6 194.4L259.1 418l43.8 75.9h87.6l43.8-75.9-43.8-75.9h-87.6z m0 195.6l-43.8 75.9 43.8 75.9h87.6l43.8-75.9-43.8-75.9h-87.6z m-169.6 95.4L89.4 709l43.8 75.9h87.6l43.8-75.9-43.8-75.9h-87.5z m169.6 97.2l-43.8 75.9 43.8 75.9h87.6l43.8-75.9-43.8-75.9h-87.6zM471.5 635l-43.8 75.9 43.8 75.9h87.6l43.8-75.9-43.8-75.9h-87.6z m169.6 95.3l-43.8 75.9 43.8 75.9h87.6l43.8-75.9-43.8-75.9h-87.6z m-169.6 99.1l-43.8 75.9 43.8 75.9h87.6l43.8-75.9-43.8-75.9h-87.6z m169.6-681.7l-43.8 75.9 43.8 75.9h87.6l43.8-75.9-43.8-75.9h-87.6z m168.4 96.6l-43.8 75.9 43.8 75.9h87.6l43.8-75.9-43.8-75.9h-87.6z m-168.4 97.8L597.3 418l43.8 75.9h87.6l43.8-75.9-43.8-75.9h-87.6z m0 195.6l-43.8 75.9 43.8 75.9h87.6l43.8-75.9-43.8-75.9h-87.6z m168.4-99l-43.8 75.9 43.8 75.9h87.6l43.8-75.9-43.8-75.9h-87.6z m0 195.6l-43.8 75.9 43.8 75.9h87.6l43.8-75.9-43.8-75.9h-87.6z" fill="#fff" p-id="1711"></path></svg>