<svg width="1024" height="1024" xmlns="http://www.w3.org/2000/svg" class="icon">
 <defs>
  <style type="text/css"/>
 </defs>
 <g>
  <title>Layer 1</title>
  <path stroke="null" id="svg_1" fill="#fff" d="m984,291.435207l-939.000023,0l0,-227.676895l939.000023,0l0,227.676895zm-156.500004,-168.649552l-207.362505,0l0,113.838447l207.362505,0l0,-113.838447zm156.500004,505.948655l-939.000023,0l0,-227.676895l939.000023,0l0,227.676895zm-156.500004,-168.649552l-207.362505,0l0,113.838447l207.362505,0l0,-113.838447zm156.500004,505.948655l-939.000023,0l0,-223.460656l939.000023,0l0,223.460656zm-156.500004,-168.649551l-207.362505,0l0,113.838447l207.362505,0l0,-113.838447z"/>
 </g>
</svg>