<?xml version="1.0" encoding="UTF-8"?>
<svg width="16px" height="16px" viewBox="0 0 16 16" version="1.1" xmlns="http://www.w3.org/2000/svg" xmlns:xlink="http://www.w3.org/1999/xlink">
    <!-- Generator: Sketch 49 (51002) - http://www.bohemiancoding.com/sketch -->
    <title>Shape Copy 4</title>
    <desc>Created with Sketch.</desc>
    <defs></defs>
    <g id="Symbols" stroke="none" stroke-width="1" fill="none" fill-rule="evenodd">
        <g id="扩展节点-hover" transform="translate(-160.000000, -28.000000)" fill="#52C41A">
            <path d="M171.270312,39.225 L166.153125,34.0921875 L164.81875,36.428125 C164.664062,36.6984375 164.321875,36.7921875 164.051562,36.6375 C163.78125,36.4828125 163.6875,36.140625 163.842187,35.8703125 L165.542188,32.89375 C165.645312,32.7125 165.835938,32.609375 166.03125,32.609375 C166.126563,32.609375 166.221875,32.6328125 166.309375,32.6828125 C166.359375,32.7125 166.404687,32.746875 166.442187,32.7875 C166.44375,32.7890625 166.446875,32.7921875 166.448438,32.79375 L172.065625,38.428125 C172.284375,38.6484375 172.284375,39.0046875 172.064063,39.2234375 C171.845313,39.4453125 171.490625,39.4453125 171.270312,39.225 L171.270312,39.225 Z M168,44 C163.58125,44 160,40.41875 160,36 C160,31.58125 163.58125,28 168,28 C172.41875,28 176,31.58125 176,36 C176,40.41875 172.41875,44 168,44 L168,44 Z M172.860938,31.1390625 C172.229688,30.5078125 171.49375,30.0109375 170.675,29.665625 C169.828125,29.30625 168.928125,29.125 168,29.125 C167.071875,29.125 166.171875,29.30625 165.325,29.6640625 C164.50625,30.0109375 163.771875,30.50625 163.139062,31.1375 C162.507812,31.76875 162.010938,32.5046875 161.665625,33.3234375 C161.30625,34.171875 161.125,35.071875 161.125,36 C161.125,36.928125 161.30625,37.828125 161.664062,38.675 C162.010938,39.49375 162.50625,40.228125 163.1375,40.8609375 C163.76875,41.4921875 164.504687,41.9890625 165.323438,42.334375 C166.171875,42.69375 167.071875,42.875 168,42.875 C168.928125,42.875 169.828125,42.69375 170.675,42.3359375 C171.49375,41.9890625 172.228125,41.49375 172.860938,40.8625 C173.492188,40.23125 173.989062,39.4953125 174.334375,38.6765625 C174.69375,37.828125 174.875,36.928125 174.875,36 C174.875,35.071875 174.69375,34.171875 174.335938,33.325 C173.989062,32.50625 173.49375,31.7703125 172.860938,31.1390625 L172.860938,31.1390625 Z" id="Shape-Copy-4" transform="translate(168.000000, 36.000000) scale(1, -1) translate(-168.000000, -36.000000) "></path>
        </g>
    </g>
</svg>