<?xml version="1.0" standalone="no"?><!DOCTYPE svg PUBLIC "-//W3C//DTD SVG 1.1//EN" "http://www.w3.org/Graphics/SVG/1.1/DTD/svg11.dtd"><svg t="1541171050636" class="icon" style="" viewBox="0 0 1024 1024" version="1.1" xmlns="http://www.w3.org/2000/svg" p-id="1378" xmlns:xlink="http://www.w3.org/1999/xlink" width="128" height="128"><defs><style type="text/css"></style></defs><path d="M960.93980445 632.60444445H907.94666667v-78.67733334C907.94666667 482.50083555 851.96686222 424.39111111 783.15633778 424.39111111H535.89333333v-98.98666666h54.93532445c12.43818667 0 22.43356445-8.99527111 22.43356444-21.43459556V149.83054222C613.26222222 135.44789333 601.69443555 122.88 587.30837333 122.88H433.17020445C420.73315555 122.88 410.73777778 133.87207111 410.73777778 146.31139555v154.13930667C410.73777778 314.83335111 422.30556445 325.40444445 436.69048889 325.40444445H488.10666667v98.98666666H229.93123555C168.20224 424.39111111 116.05333333 477.26478222 116.05333333 539.84938667V632.60444445h-56.51342222C47.10286222 632.60444445 37.54666667 643.65795555 37.54666667 656.09500445V810.23431111c0 14.38151111 11.12860445 24.89344 25.51352888 24.89344h154.13703112c12.43818667 0 22.87388445-8.93610667 22.87388444-21.37429333V659.61642667c0-14.38378667-12.00696889-27.01084445-26.39189333-27.01084445H161.56444445v-92.75505777C161.56444445 501.93408 192.87267555 469.90222222 229.93123555 469.90222222H488.10666667v162.70222223h-54.93646222C420.73315555 632.60444445 410.73777778 643.65795555 410.73777778 656.09500445V810.23431111c0 14.38151111 11.56778667 24.89344 25.95271111 24.89344h154.13816889c12.43818667 0 22.43356445-8.93610667 22.43356444-21.37429333V659.61642667c0-14.38378667-11.56778667-27.01084445-25.95384889-27.01084445H535.89333333V469.90222222h247.26300445C826.87089778 469.90222222 862.43555555 507.59566222 862.43555555 553.92711111V632.60444445h-55.63278222C794.36344889 632.60444445 783.92888889 643.65795555 783.92888889 656.09500445V810.23431111c0 14.38151111 12.00810667 24.89344 26.39189333 24.89344h154.13703111c12.43818667 0 21.99438222-8.93610667 21.99438222-21.37429333V659.61642667C986.45333333 645.23264 975.32472889 632.60444445 960.93980445 632.60444445z" p-id="1379" fill="#fff"></path></svg>